#!OML:ASF H:\LiuWeirdWalks\Patient Classification 1\Patient 1\Session 1\male.ASF
:FULLY-SPECIFIED
:DEGREES
591
root 0.582513 18.7374 35.6125 -1.77096 5.66156 -12.0746
lowerback 11.1473 0.18228 5.427
upperback 0.183377 1.18283 3.75563
thorax -6.04979 0.4807 0.704153
lowerneck -23.4569 -0.183109 6.5523
upperneck 20.5151 -1.45225 -4.41511
head 10.3515 -0.696118 -2.88915
rclavicle 1.19768e-014 -2.34566e-014
rhumerus -52.1541 2.28604 -79.9369
rradius 33.5049
rwrist -8.529
rhand -14.4452 -2.80723
rfingers 7.12502
rthumb 11.6998 -32.4605
lclavicle 1.19768e-014 -2.34566e-014
lhumerus -51.56 -2.94423 71.8111
lradius 44.5065
lwrist 7.0018
lhand -16.5951 -5.5595
lfingers 7.12502
lthumb 9.62599 24.2006
rfemur -5.17508 -13.3234 21.0117
rtibia 88.7731
rfoot 7.4815 -11.2354
rtoes -3.77046
lfemur -17.2676 -1.60455 -13.6724
ltibia 22.0767
lfoot 7.72064 3.9284
ltoes -13.6416
592
root 0.572287 18.5951 35.7532 -1.89439 5.49006 -12.1242
lowerback 11.0277 0.211576 5.45107
upperback 0.22369 1.21497 3.80322
thorax -5.93948 0.499027 0.735911
lowerneck -23.2114 -0.17733 6.42644
upperneck 20.5453 -1.35836 -4.50881
head 10.3236 -0.673158 -2.88542
rclavicle -1.18774e-014 -4.49253e-014
rhumerus -51.9135 2.17991 -79.7046
rradius 33.2772
rwrist -8.47919
rhand -14.353 -2.78682
rfingers 7.12502
rthumb 11.7887 -32.435
lclavicle -1.18774e-014 -4.49253e-014
lhumerus -51.7414 -2.69386 71.5808
lradius 44.4145
lwrist 6.86577
lhand -16.5814 -5.52501
lfingers 7.12502
lthumb 9.63922 24.2345
rfemur -4.9523 -13.1849 20.9527
rtibia 89.0492
rfoot 7.2775 -11.5463
rtoes -3.57335
lfemur -17.8763 -1.13961 -13.7704
ltibia 23.3831
lfoot 7.62523 3.19569
ltoes -9.92443
593
root 0.561106 18.4451 35.8917 -1.97089 5.28877 -12.244
lowerback 10.8627 0.251979 5.51818
upperback 0.230228 1.26771 3.88719
thorax -5.83906 0.526298 0.77931
lowerneck -22.9002 -0.171322 6.2888
upperneck 20.5893 -1.26047 -4.58634
head 10.2891 -0.646509 -2.87273
rclavicle -2.36057e-015 -3.22031e-014
rhumerus -51.6978 2.05775 -79.4401
rradius 33.1009
rwrist -8.48641
rhand -14.3342 -2.78208
rfingers 7.12502
rthumb 11.8069 -32.4293
lclavicle -2.36057e-015 -3.22031e-014
lhumerus -51.9079 -2.43239 71.3678
lradius 44.255
lwrist 6.4878
lhand -16.4532 -5.66138
lfingers 7.12502
lthumb 9.76295 24.0923
rfemur -4.87627 -13.0373 21.0096
rtibia 89.3919
rfoot 6.99994 -11.8756
rtoes -3.50308
lfemur -18.5807 -0.68206 -13.7935
ltibia 25.2529
lfoot 6.61813 2.87388
ltoes -6.49521
594
root 0.550613 18.2909 36.029 -1.9738 5.03156 -12.3804
lowerback 10.6311 0.31238 5.58417
upperback 0.2002 1.3443 3.99062
thorax -5.73996 0.565246 0.840983
lowerneck -22.551 -0.170764 6.10845
upperneck 20.696 -1.16772 -4.60683
head 10.2708 -0.617223 -2.83425
rclavicle -6.78353e-015 1.0138e-014
rhumerus -51.4963 1.92027 -79.1422
rradius 32.9666
rwrist -8.50639
rhand -14.3934 -2.78311
rfingers 7.12502
rthumb 11.7497 -32.4336
lclavicle -6.78353e-015 1.0138e-014
lhumerus -52.0647 -2.15712 71.1854
lradius 44.0415
lwrist 5.94492
lhand -16.2927 -5.92692
lfingers 7.12502
lthumb 9.91777 23.8195
rfemur -4.96747 -12.8484 21.1263
rtibia 89.7877
rfoot 6.63435 -12.233
rtoes -3.52311
lfemur -19.3783 -0.292818 -13.7959
ltibia 27.5517
lfoot 4.8843 3.20127
ltoes -3.63313
595
root 0.541239 18.1378 36.1653 -1.80969 4.72662 -12.423
lowerback 10.2545 0.394152 5.52703
upperback 0.11004 1.42463 4.08213
thorax -5.62504 0.608984 0.95995
lowerneck -22.1789 -0.147489 5.94578
upperneck 20.8662 -1.05289 -4.60974
head 10.2722 -0.573166 -2.79043
rclavicle -2.58669e-014 -7.95139e-016
rhumerus -51.2962 1.76729 -78.8197
rradius 32.8581
rwrist -8.51285
rhand -14.5653 -2.76163
rfingers 7.12502
rthumb 11.584 -32.4215
lclavicle -2.58669e-014 -7.95139e-016
lhumerus -52.213 -1.84418 71.0207
lradius 43.7683
lwrist 5.26591
lhand -16.171 -6.34527
lfingers 7.12502
lthumb 10.0352 23.3955
rfemur -5.32527 -12.6173 21.1965
rtibia 90.2358
rfoot 6.19534 -12.587
rtoes -3.59342
lfemur -20.3584 -0.0299852 -13.8891
ltibia 30.1208
lfoot 2.7898 4.18819
ltoes -1.80558
596
root 0.53239 17.9913 36.2993 -1.40926 4.41509 -12.3518
lowerback 9.69063 0.482448 5.3268
upperback -0.0563209 1.48495 4.14649
thorax -5.48788 0.646151 1.13554
lowerneck -21.8516 -0.0936607 5.81547
upperneck 21.1147 -0.913133 -4.59657
head 10.3114 -0.51244 -2.74511
rclavicle 4.28629e-015 -2.66371e-014
rhumerus -51.0658 1.57918 -78.4859
rradius 32.7454
rwrist -8.4746
rhand -14.8634 -2.73507
rfingers 7.12502
rthumb 11.2965 -32.4109
lclavicle 4.28629e-015 -2.66371e-014
lhumerus -52.3143 -1.49012 70.868
lradius 43.4176
lwrist 4.55063
lhand -16.1485 -6.84571
lfingers 7.12502
lthumb 10.0569 22.894
rfemur -6.03664 -12.3727 21.2246
rtibia 90.7195
rfoot 5.71184 -12.9303
rtoes -3.58771
lfemur -21.6224 0.0903274 -14.0872
ltibia 32.8263
lfoot 0.738648 5.64983
ltoes -0.893351
597
root 0.521043 17.8554 36.4265 -0.762455 4.16828 -12.1488
lowerback 8.99016 0.554143 4.95687
upperback -0.315632 1.49964 4.16709
thorax -5.3746 0.663821 1.36842
lowerneck -21.6081 -0.0140831 5.74146
upperneck 21.4303 -0.759882 -4.58681
head 10.3906 -0.441295 -2.71109
rclavicle -2.84635e-014 -2.68359e-014
rhumerus -50.786 1.30419 -78.1432
rradius 32.5888
rwrist -8.35651
rhand -15.3173 -2.67702
rfingers 7.12502
rthumb 10.8587 -32.3763
lclavicle -2.84635e-014 -2.68359e-014
lhumerus -52.3345 -1.11148 70.7152
lradius 42.9638
lwrist 3.87767
lhand -16.2633 -7.35898
lfingers 7.12502
lthumb 9.94614 22.386
rfemur -7.14272 -12.1859 21.2096
rtibia 91.2303
rfoot 5.18168 -13.2601
rtoes -3.51747
lfemur -23.217 0.0800777 -14.398
ltibia 35.5502
lfoot -1.02962 7.23553
ltoes -0.361522
598
root 0.503953 17.731 36.5417 0.0518064 4.05085 -11.8946
lowerback 8.27941 0.572368 4.48449
upperback -0.669587 1.44169 4.16172
thorax -5.35601 0.646651 1.64158
lowerneck -21.4038 0.0915795 5.75057
upperneck 21.7667 -0.59278 -4.60454
head 10.4851 -0.360542 -2.69975
rclavicle -3.2638e-014 -1.78906e-014
rhumerus -50.4575 0.92569 -77.8063
rradius 32.3457
rwrist -8.19984
rhand -15.9613 -2.56854
rfingers 7.12502
rthumb 10.2375 -32.2994
lclavicle -3.2638e-014 -1.78906e-014
lhumerus -52.261 -0.710835 70.5453
lradius 42.3612
lwrist 3.28198
lhand -16.511 -7.80935
lfingers 7.12502
lthumb 9.70713 21.947
rfemur -8.56753 -12.116 21.2614
rtibia 91.7302
rfoot 4.61169 -13.6143
rtoes -3.50829
lfemur -25.0706 -0.00711173 -14.718
ltibia 38.2053
lfoot -2.40728 8.57526
ltoes 0.0777786
599
root 0.482161 17.617 36.6431 0.820295 4.02251 -11.6227
lowerback 7.77378 0.547974 3.9989
upperback -1.06809 1.34704 4.12546
thorax -5.49785 0.61035 1.89291
lowerneck -21.1799 0.205227 5.85584
upperneck 22.0607 -0.430581 -4.67979
head 10.56 -0.281515 -2.72485
rclavicle -3.61664e-014 -3.12092e-014
rhumerus -50.1156 0.386683 -77.4517
rradius 31.9974
rwrist -7.94068
rhand -16.7497 -2.43745
rfingers 7.12502
rthumb 9.4769 -32.2044
lclavicle -3.61664e-014 -3.12092e-014
lhumerus -52.0844 -0.304441 70.3539
lradius 41.5669
lwrist 2.74071
lhand -16.92 -8.2335
lfingers 7.12502
lthumb 9.3125 21.5408
rfemur -10.0586 -12.1255 21.3666
rtibia 92.1728
rfoot 3.98361 -13.98
rtoes -3.5488
lfemur -26.8925 -0.0829827 -15.008
ltibia 40.7079
lfoot -3.54917 9.54154
ltoes 0.249376
600
root 0.457355 17.5121 36.7323 1.34682 4.0348 -11.3918
lowerback 7.598 0.494328 3.5963
upperback -1.43363 1.24321 4.0726
thorax -5.7888 0.567161 2.07962
lowerneck -20.916 0.305267 6.00183
upperneck 22.3138 -0.294049 -4.77109
head 10.6111 -0.212823 -2.76518
rclavicle 1.57537e-014 -2.48481e-014
rhumerus -49.7672 -0.3292 -77.0696
rradius 31.5567
rwrist -7.6064
rhand -17.6826 -2.28959
rfingers 7.12502
rthumb 8.57666 -32.0954
lclavicle 1.57537e-014 -2.48481e-014
lhumerus -51.8024 0.136628 70.1351
lradius 40.5871
lwrist 2.24807
lhand -17.4113 -8.56134
lfingers 7.12502
lthumb 8.83843 21.2336
rfemur -11.3493 -12.1656 21.5392
rtibia 92.4887
rfoot 3.27166 -14.3645
rtoes -3.6692
lfemur -28.3916 -0.0776929 -15.2128
ltibia 42.9843
lfoot -4.60921 10.1189
ltoes -0.013128
601
root 0.433644 17.4178 36.8133 1.55982 3.99144 -11.1749
lowerback 7.73373 0.448521 3.28131
upperback -1.70328 1.17064 4.00079
thorax -6.15418 0.5375 2.19222
lowerneck -20.6284 0.390555 6.15547
upperneck 22.5273 -0.181686 -4.85152
head 10.6419 -0.153244 -2.80546
rclavicle -4.75841e-015 -1.96797e-014
rhumerus -49.4018 -1.19932 -76.6529
rradius 31.0538
rwrist -7.19734
rhand -18.6744 -2.20397
rfingers 7.12502
rthumb 7.61945 -32.0467
lclavicle -4.75841e-015 -1.96797e-014
lhumerus -51.4096 0.669964 69.8849
lradius 39.4259
lwrist 1.73021
lhand -17.9443 -8.86817
lfingers 7.12502
lthumb 8.32411 20.9478
rfemur -12.3148 -12.1463 21.7027
rtibia 92.6297
rfoot 2.51116 -14.7299
rtoes -3.86734
lfemur -29.3989 0.0742858 -15.3821
ltibia 44.9609
lfoot -5.61668 10.4103
ltoes -0.478597
602
root 0.414328 17.3359 36.8922 1.33191 3.80755 -10.9902
lowerback 8.20975 0.439797 3.09368
upperback -1.7892 1.16781 3.91947
thorax -6.51887 0.538676 2.21231
lowerneck -20.4217 0.455275 6.25458
upperneck 22.7684 -0.102519 -4.86213
head 10.6966 -0.105017 -2.81783
rclavicle -7.81472e-015 -2.22639e-014
rhumerus -48.9985 -2.16602 -76.2299
rradius 30.558
rwrist -6.75459
rhand -19.637 -2.24053
rfingers 7.12502
rthumb 6.69026 -32.1148
lclavicle -7.81472e-015 -2.22639e-014
lhumerus -50.8952 1.34302 69.6119
lradius 38.1299
lwrist 1.11909
lhand -18.4946 -9.18107
lfingers 7.12502
lthumb 7.79301 20.6553
rfemur -12.7448 -12.0072 21.8124
rtibia 92.5351
rfoot 1.72408 -15.0461
rtoes -4.09463
lfemur -29.6938 0.395379 -15.5143
ltibia 46.5887
lfoot -6.58337 10.5764
ltoes -0.684498
603
root 0.401062 17.2692 36.9719 0.804162 3.48183 -10.8356
lowerback 8.82847 0.466716 3.01494
upperback -1.7058 1.22149 3.8426
thorax -6.78505 0.56457 2.16579
lowerneck -20.3255 0.516708 6.30761
upperneck 23.0323 -0.035146 -4.81358
head 10.7803 -0.0593473 -2.80438
rclavicle 3.11843e-015 2.98177e-014
rhumerus -48.5496 -3.12974 -75.8476
rradius 30.1404
rwrist -6.32482
rhand -20.4792 -2.40188
rfingers 7.12502
rthumb 5.87718 -32.3004
lclavicle 3.11843e-015 2.98177e-014
lhumerus -50.2972 2.19147 69.3218
lradius 36.7841
lwrist 0.372913
lhand -19.0336 -9.5348
lfingers 7.12502
lthumb 7.27273 20.3202
rfemur -12.7895 -11.744 21.8845
rtibia 92.2099
rfoot 0.953976 -15.2917
rtoes -4.30542
lfemur -29.4081 0.834363 -15.6165
ltibia 47.8472
lfoot -7.49287 10.7271
ltoes -0.851491
604
root 0.393693 17.2185 37.0534 0.155738 3.05635 -10.7329
lowerback 9.406 0.508022 3.03645
upperback -1.49864 1.29765 3.79137
thorax -6.89459 0.599141 2.0846
lowerneck -20.3598 0.58932 6.31918
upperneck 23.3201 0.0408585 -4.71923
head 10.8988 -0.0083666 -2.76769
rclavicle -4.36705e-015 -1.98785e-015
rhumerus -48.0491 -3.91523 -75.6081
rradius 29.8551
rwrist -6.05668
rhand -21.1665 -2.68488
rfingers 7.12502
rthumb 5.21354 -32.6007
lclavicle -4.36705e-015 -1.98785e-015
lhumerus -49.658 3.19719 69.0503
lradius 35.4884
lwrist -0.399101
lhand -19.4806 -9.82506
lfingers 7.12502
lthumb 6.84121 20.0444
rfemur -12.6589 -11.4019 21.9855
rtibia 91.6799
rfoot 0.263983 -15.4584
rtoes -4.43998
lfemur -28.7593 1.29806 -15.6617
ltibia 48.7544
lfoot -8.33446 10.9367
ltoes -0.905121
